<?xml version="1.0" standalone="no"?>
<!DOCTYPE svg PUBLIC "-//W3C//DTD SVG 20010904//EN"
 "http://www.w3.org/TR/2001/REC-SVG-20010904/DTD/svg10.dtd">
<svg version="1.0" xmlns="http://www.w3.org/2000/svg"
 width="596.000000pt" height="596.000000pt" viewBox="0 0 596.000000 596.000000"
 preserveAspectRatio="xMidYMid meet">
<metadata>
Created by potrace 1.11, written by Peter Selinger 2001-2013
</metadata>
<g transform="translate(0.000000,596.000000) scale(0.100000,-0.100000)"
fill="#000000" stroke="none">
<path d="M240 2980 l0 -2980 226 0 225 0 87 51 c48 29 101 60 117 69 17 10 95
56 174 104 79 47 145 86 147 86 1 0 51 29 111 65 59 36 115 69 123 74 8 5 98
59 200 119 102 60 259 153 350 207 91 54 176 104 190 112 14 8 39 23 55 33 17
11 37 23 45 27 8 3 17 9 20 12 4 5 21 15 95 55 10 6 25 17 33 24 7 6 18 12 23
12 6 0 26 12 45 26 19 15 34 23 34 19 0 -5 8 -1 17 7 10 9 97 62 193 118 96
56 187 111 202 121 14 11 29 19 34 19 4 0 30 15 58 33 27 17 58 37 68 42 9 6
66 39 125 74 59 35 122 71 138 81 25 14 271 161 327 195 9 5 29 17 45 26 42
24 226 133 413 244 91 54 174 103 185 109 11 6 31 19 45 27 43 28 301 179 305
179 2 0 30 17 62 38 32 21 79 49 105 62 27 14 48 28 48 32 0 5 5 8 10 8 6 0
65 33 133 73 67 41 201 120 297 177 96 57 215 127 263 157 49 29 93 53 98 53
21 0 -5 20 -84 66 -45 26 -100 59 -122 73 -22 14 -43 25 -47 26 -4 0 -17 8
-28 18 -11 9 -22 17 -25 17 -2 0 -111 64 -242 141 -131 78 -258 153 -283 167
-25 13 -52 30 -60 37 -8 6 -22 15 -30 18 -8 4 -55 32 -105 62 -49 30 -102 61
-117 67 -16 7 -28 16 -28 20 0 4 -5 8 -11 8 -6 0 -31 14 -56 30 -24 17 -46 30
-48 30 -9 0 -130 74 -133 82 -2 4 -8 8 -13 8 -10 0 -119 63 -246 142 -34 21
-67 38 -73 38 -5 0 -10 4 -10 9 0 5 -11 12 -25 15 -14 4 -25 11 -25 16 0 6 -4
10 -9 10 -4 0 -41 19 -80 43 -90 53 -91 53 -181 106 -41 24 -115 68 -163 97
-49 30 -93 54 -98 54 -5 0 -9 5 -9 10 0 6 -5 10 -10 10 -6 0 -62 32 -126 70
-63 39 -116 70 -118 70 -3 0 -131 77 -186 111 -14 9 -101 60 -195 114 -93 55
-189 111 -212 127 -23 15 -44 28 -48 28 -3 0 -22 11 -43 24 -36 23 -335 201
-397 236 -16 9 -56 33 -87 53 -31 21 -59 37 -62 37 -3 0 -83 47 -178 104 -208
125 -279 166 -383 226 -16 10 -121 72 -233 139 -112 66 -207 121 -212 121 -6
0 -10 5 -10 10 0 6 -4 10 -9 10 -5 0 -42 20 -83 45 l-75 45 -227 0 -226 0 0
-2980z m1275 1199 c17 -10 37 -22 45 -26 8 -3 31 -17 50 -29 19 -12 157 -94
305 -181 149 -88 371 -220 495 -294 124 -73 234 -139 245 -145 11 -6 67 -39
125 -74 58 -34 121 -72 140 -83 19 -11 47 -27 62 -36 15 -9 107 -63 204 -121
97 -58 193 -114 213 -125 20 -11 38 -22 41 -25 3 -3 16 -11 30 -18 43 -23 62
-40 55 -51 -3 -6 -13 -11 -21 -11 -8 0 -14 -4 -14 -10 0 -5 -4 -10 -9 -10 -5
0 -92 -50 -195 -110 -102 -61 -189 -110 -192 -109 -4 0 -10 -3 -13 -8 -3 -4
-15 -13 -26 -20 -11 -6 -83 -49 -160 -95 -77 -46 -149 -88 -160 -94 -11 -6
-123 -72 -249 -147 -125 -76 -232 -137 -237 -137 -5 0 -9 -4 -9 -8 0 -4 -12
-13 -27 -20 -16 -7 -45 -22 -65 -35 -162 -97 -204 -123 -213 -126 -5 -2 -32
-18 -60 -36 -27 -18 -69 -43 -92 -56 -23 -13 -99 -58 -169 -99 -71 -41 -130
-73 -133 -70 -6 7 -7 2430 -1 2429 3 0 19 -9 35 -20z"/>
</g>
</svg>
