<svg xmlns="http://www.w3.org/2000/svg" viewBox="0 0 137.02 149.06"><g style="isolation:isolate"><polygon points="53.17 98.59 41.93 98.59 82.55 74.53 93.79 74.53 53.17 98.59" style="fill:#171c29"/><polygon points="93.79 74.53 82.55 74.53 41.93 50.46 53.17 50.46 93.79 74.53" style="fill:#161b27"/><polygon points="30.91 111.79 19.66 111.79 41.93 98.59 53.17 98.59 30.91 111.79" style="fill:#171c29"/><polygon points="53.17 50.46 41.93 50.46 19.66 37.27 30.91 37.27 53.17 50.46" style="fill:#161b27"/><rect width="11.25" height="149.06" style="fill:#161b27"/><path d="M126.59,75.16,168.51,100l-41.92,24.84L84.66,149.69,42.74,174.53V25.47L84.66,50.32Zm-41.93,48.9L125.28,100,84.66,75.93,62.4,62.74v74.52l22.26-13.2" transform="translate(-31.49 -25.47)" style="fill:#283046"/></g><g style="isolation:isolate"><rect x="83.85" y="49.69" width="11.25" height="49.68" style="fill:#2d364e"/><polygon points="95.1 49.69 137.02 74.53 95.1 99.37 95.1 49.69" style="fill:#52628e"/></g><g style="isolation:isolate"><rect x="41.93" y="98.6" width="11.25" height="25.62" style="fill:#212738"/><polygon points="53.17 98.59 41.93 98.59 82.55 74.53 93.79 74.53 53.17 98.59" style="fill:#22293b"/><polygon points="93.79 74.53 82.55 74.53 41.93 50.46 53.17 50.46 93.79 74.53" style="fill:#212738"/><rect x="41.93" y="24.85" width="11.25" height="25.61" style="fill:#212738"/><polygon points="53.17 24.85 95.1 49.69 95.1 99.37 53.17 124.22 53.17 98.59 93.79 74.53 53.17 50.46 53.17 24.85" style="fill:#3b4766"/></g><g style="isolation:isolate"><polygon points="30.91 111.79 19.66 111.79 41.93 98.59 53.17 98.59 30.91 111.79" style="fill:#171c29"/><polygon points="53.17 50.46 41.93 50.46 19.66 37.27 30.91 37.27 53.17 50.46" style="fill:#161b27"/><rect width="11.25" height="149.06" style="fill:#161b27"/><polygon points="11.25 0 53.17 24.85 53.17 50.46 30.91 37.27 30.91 111.79 53.17 98.59 53.17 124.22 11.25 149.06 11.25 0" style="fill:#283046"/></g></svg>